REM DIRINDEX 1\2\4,1\2\5,1\3\6,1\3\7,1\3\8
REM DIRNAME cjc094,folder01,folder02,folder03,folder04,folder05,folder06,folder07
TITLE ""
FILE "LV2_039_WORDS.mp3" MP3
  TRACK 01 AUDIO
    TITLE "0:"
    INDEX 01 00:00:00
  TRACK 02 AUDIO
    TITLE "6:cjc094_1443"
    INDEX 01 00:00:01
  TRACK 03 AUDIO
    TITLE "0:"
    INDEX 01 00:02:00
  TRACK 04 AUDIO
    TITLE "7:cjc094_1444"
    INDEX 01 00:02:55
  TRACK 05 AUDIO
    TITLE "0:"
    INDEX 01 00:04:74
  TRACK 06 AUDIO
    TITLE "8:cjc094_1445"
    INDEX 01 00:05:26
  TRACK 07 AUDIO
    TITLE "0:"
    INDEX 01 00:06:33
  TRACK 08 AUDIO
    TITLE "7:cjc094_1446"
    INDEX 01 00:07:02
  TRACK 09 AUDIO
    TITLE "0:"
    INDEX 01 00:09:16
  TRACK 10 AUDIO
    TITLE "8:cjc094_1447"
    INDEX 01 00:09:34
  TRACK 11 AUDIO
    TITLE "0:"
    INDEX 01 00:11:35
  TRACK 12 AUDIO
    TITLE "7:cjc094_1448"
    INDEX 01 00:12:07
  TRACK 13 AUDIO
    TITLE "0:"
    INDEX 01 00:13:10
  TRACK 14 AUDIO
    TITLE "8:cjc094_1449"
    INDEX 01 00:13:26
  TRACK 15 AUDIO
    TITLE "0:"
    INDEX 01 00:14:31
  TRACK 16 AUDIO
    TITLE "7:cjc094_1450"
    INDEX 01 00:15:01
  TRACK 17 AUDIO
    TITLE "0:"
    INDEX 01 00:16:10
  TRACK 18 AUDIO
    TITLE "8:cjc094_1451"
    INDEX 01 00:16:22
  TRACK 19 AUDIO
    TITLE "0:"
    INDEX 01 00:17:69
  TRACK 20 AUDIO
    TITLE "7:cjc094_1452"
    INDEX 01 00:18:39
  TRACK 21 AUDIO
    TITLE "0:"
    INDEX 01 00:19:36
  TRACK 22 AUDIO
    TITLE "8:cjc094_1453"
    INDEX 01 00:19:48
  TRACK 23 AUDIO
    TITLE "0:"
    INDEX 01 00:24:18
  TRACK 24 AUDIO
    TITLE "7:cjc094_1454"
    INDEX 01 00:24:67
  TRACK 25 AUDIO
    TITLE "0:"
    INDEX 01 00:25:68
  TRACK 26 AUDIO
    TITLE "8:cjc094_1455"
    INDEX 01 00:26:09
  TRACK 27 AUDIO
    TITLE "0:"
    INDEX 01 00:27:53
  TRACK 28 AUDIO
    TITLE "7:cjc094_1456"
    INDEX 01 00:28:27
  TRACK 29 AUDIO
    TITLE "0:"
    INDEX 01 00:29:33
  TRACK 30 AUDIO
    TITLE "8:cjc094_1457"
    INDEX 01 00:29:48
  TRACK 31 AUDIO
    TITLE "0:"
    INDEX 01 00:31:49
  TRACK 32 AUDIO
    TITLE "7:cjc094_1458"
    INDEX 01 00:32:21
  TRACK 33 AUDIO
    TITLE "0:"
    INDEX 01 00:33:30
  TRACK 34 AUDIO
    TITLE "8:cjc094_1459"
    INDEX 01 00:33:48
  TRACK 35 AUDIO
    TITLE "0:"
    INDEX 01 00:35:41
  TRACK 36 AUDIO
    TITLE "7:cjc094_1460"
    INDEX 01 00:36:15
  TRACK 37 AUDIO
    TITLE "0:"
    INDEX 01 00:37:26
  TRACK 38 AUDIO
    TITLE "8:cjc094_1461"
    INDEX 01 00:37:44
  TRACK 39 AUDIO
    TITLE "0:"
    INDEX 01 00:39:62
  TRACK 40 AUDIO
    TITLE "7:cjc094_1462"
    INDEX 01 00:40:44
  TRACK 41 AUDIO
    TITLE "0:"
    INDEX 01 00:41:55
  TRACK 42 AUDIO
    TITLE "8:cjc094_1463"
    INDEX 01 00:41:67
  TRACK 43 AUDIO
    TITLE "0:"
    INDEX 01 00:43:50
  TRACK 44 AUDIO
    TITLE "7:cjc094_1464"
    INDEX 01 00:44:20
  TRACK 45 AUDIO
    TITLE "0:"
    INDEX 01 00:45:28
  TRACK 46 AUDIO
    TITLE "8:cjc094_1465"
    INDEX 01 00:45:43
  TRACK 47 AUDIO
    TITLE "0:"
    INDEX 01 00:48:12
  TRACK 48 AUDIO
    TITLE "7:cjc094_1466"
    INDEX 01 00:48:61
  TRACK 49 AUDIO
    TITLE "0:"
    INDEX 01 00:50:17
  TRACK 50 AUDIO
    TITLE "8:cjc094_1467"
    INDEX 01 00:50:39
  TRACK 51 AUDIO
    TITLE "0:"
    INDEX 01 00:51:60
  TRACK 52 AUDIO
    TITLE "7:cjc094_1468"
    INDEX 01 00:52:32
  TRACK 53 AUDIO
    TITLE "0:"
    INDEX 01 00:53:62
  TRACK 54 AUDIO
    TITLE "8:cjc094_1469"
    INDEX 01 00:54:03
  TRACK 55 AUDIO
    TITLE "0:"
    INDEX 01 00:55:24
  TRACK 56 AUDIO
    TITLE "7:cjc094_1470"
    INDEX 01 00:55:71
  TRACK 57 AUDIO
    TITLE "0:"
    INDEX 01 00:57:03
  TRACK 58 AUDIO
    TITLE "8:cjc094_1471"
    INDEX 01 00:57:17
  TRACK 59 AUDIO
    TITLE "0:"
    INDEX 01 01:00:04
  TRACK 60 AUDIO
    TITLE "7:cjc094_1472"
    INDEX 01 01:00:59
  TRACK 61 AUDIO
    TITLE "0:"
    INDEX 01 01:01:64
  TRACK 62 AUDIO
    TITLE "8:cjc094_1473"
    INDEX 01 01:02:05
  TRACK 63 AUDIO
    TITLE "0:"
    INDEX 01 01:02:71
